<svg xmlns="http://www.w3.org/2000/svg" width="374.757" height="126.773" viewBox="0 0 374.757 126.773">
  <g id="Group_1" data-name="Group 1" transform="translate(-1253.451 -440.5)">
    <path id="Path_1" data-name="Path 1" d="M153.123,86.377H141.344V15.7A15.751,15.751,0,0,0,125.639,0H31.41A15.751,15.751,0,0,0,15.7,15.7V86.377H3.926A3.938,3.938,0,0,0,0,90.3v11.779a23.627,23.627,0,0,0,23.557,23.557H133.492a23.627,23.627,0,0,0,23.557-23.557V90.3A3.938,3.938,0,0,0,153.123,86.377ZM27.484,15.7a3.98,3.98,0,0,1,3.926-3.926h94.229a3.98,3.98,0,0,1,3.926,3.926V86.377H27.484ZM145.27,102.082a11.791,11.791,0,0,1-11.779,11.779H23.557a11.791,11.791,0,0,1-11.779-11.779V98.156H56.17a7.74,7.74,0,0,0,6.65,3.926h31.41a7.743,7.743,0,0,0,6.65-3.926H145.27ZM68.135,64.206l2.775-2.775a3.926,3.926,0,0,0,0-5.553l-8.765-8.763,8.763-8.765a3.926,3.926,0,0,0,0-5.553l-2.775-2.775a3.926,3.926,0,0,0-5.553,0L48.263,44.337a3.926,3.926,0,0,0,0,5.553L62.579,64.206a3.929,3.929,0,0,0,5.556,0Zm18.007-2.773,2.775,2.775a3.926,3.926,0,0,0,5.553,0l14.316-14.316a3.926,3.926,0,0,0,0-5.553L94.47,30.023a3.926,3.926,0,0,0-5.553,0L86.141,32.8a3.926,3.926,0,0,0,0,5.553L94.9,47.115,86.141,55.88a3.926,3.926,0,0,0,0,5.553Z" transform="translate(1253.951 441)" fill="#05368b" stroke="#05368b" stroke-width="1"/>
    <g id="Group_2" data-name="Group 2" transform="translate(971.472 182.006)">
      <g id="svgGroup" transform="translate(454 335.197)">
        <path id="Path_3" data-name="Path 3" d="M145.484,35.529l.134-34.485a.231.231,0,0,1,.17-.258.4.4,0,0,1,.1-.011h7.746a.231.231,0,0,1,.258.17.4.4,0,0,1,.012.1V35.529a6.045,6.045,0,0,0,.412,2.259,5.6,5.6,0,0,0,1.07,1.7,5.057,5.057,0,0,0,1.53,1.172,4.672,4.672,0,0,0,2.074.461,4.794,4.794,0,0,0,3.7-1.633,5.667,5.667,0,0,0,1.481-3.885q0-.036,0-.072V1.044a.231.231,0,0,1,.17-.258.4.4,0,0,1,.1-.011h7.745a.231.231,0,0,1,.258.17.4.4,0,0,1,.012.1l.135,34.485a13.931,13.931,0,0,1-1.819,7,14.184,14.184,0,0,1-4.916,5.034,12.879,12.879,0,0,1-6.618,1.867h-.252a12.718,12.718,0,0,1-6.736-1.886,14.051,14.051,0,0,1-4.933-5.069,13.676,13.676,0,0,1-1.835-6.954Zm47.248,13.235h-7.779a.389.389,0,0,1-.126-.019q-.173-.059-.177-.306V9.093h-8.958a.289.289,0,0,1-.322-.212.5.5,0,0,1-.014-.125l.068-7.712a.231.231,0,0,1,.17-.258.4.4,0,0,1,.1-.011h26.2q.36,0,.37.255V8.757a.622.622,0,0,1-.011.123.24.24,0,0,1-.259.214h-9.059L193,48.427a.619.619,0,0,1-.011.123.24.24,0,0,1-.258.215ZM28.289,48.427,36.842,1.044a.314.314,0,0,1,.282-.266.479.479,0,0,1,.054,0h10a.309.309,0,0,1,.308.186.489.489,0,0,1,.028.083L55.732,48.43q.028.277-.173.326a.407.407,0,0,1-.1.011H47.821a.491.491,0,0,1-.146-.02.329.329,0,0,1-.225-.317l-.741-5.051h-9.4l-.741,5.051q-.033.337-.337.337H28.558Q28.289,48.765,28.289,48.427Zm54.32.337H60.315q-.269,0-.269-.337l.067-47.315a.289.289,0,0,1,.212-.323.5.5,0,0,1,.124-.014h7.678a.289.289,0,0,1,.323.212.5.5,0,0,1,.014.125L68.4,40.278H82.609a.289.289,0,0,1,.323.212.5.5,0,0,1,.014.124v7.813a.289.289,0,0,1-.212.323.5.5,0,0,1-.125.014Zm27.38,0H87.694q-.269,0-.269-.337l.067-47.315A.289.289,0,0,1,87.7.789a.5.5,0,0,1,.125-.014H95.5a.289.289,0,0,1,.322.212.5.5,0,0,1,.014.125l-.068,39.166h14.212a.289.289,0,0,1,.322.212.5.5,0,0,1,.014.124v7.813a.289.289,0,0,1-.212.323.5.5,0,0,1-.119.015Zm-97.359,0H.27q-.27,0-.27-.337L.134,1.044A.231.231,0,0,1,.3.786.4.4,0,0,1,.4.775H13.673a13.493,13.493,0,0,1,7.038,1.886,13.807,13.807,0,0,1,4.883,5,13.352,13.352,0,0,1,1.785,6.752,11.682,11.682,0,0,1-1.347,5.523,13.836,13.836,0,0,1-3.2,4.142,14.394,14.394,0,0,1,3.1,4.613,14.03,14.03,0,0,1,1.111,5.523,14.271,14.271,0,0,1-1.919,7.308,14.948,14.948,0,0,1-5.22,5.27,13.813,13.813,0,0,1-7.274,1.97ZM114,35.6l.068-21.857a13.639,13.639,0,0,1,.779-4.653,12.574,12.574,0,0,1,1.073-2.25,13.988,13.988,0,0,1,4.917-4.967A12.8,12.8,0,0,1,127.567,0a13.157,13.157,0,0,1,4.515.76,12.15,12.15,0,0,1,2.254,1.092A14.13,14.13,0,0,1,139.2,6.82a13.373,13.373,0,0,1,1.835,6.891v.03L141.1,35.6a13.5,13.5,0,0,1-1.819,6.9,14.326,14.326,0,0,1-4.917,5.051,13.153,13.153,0,0,1-13.572,0,14.513,14.513,0,0,1-4.933-5.035A13.307,13.307,0,0,1,114,35.6Zm18.758,0-.067-21.857a5.99,5.99,0,0,0-.361-2.109,5.382,5.382,0,0,0-1.088-1.764,4.727,4.727,0,0,0-3.447-1.579h-.223A4.894,4.894,0,0,0,124,9.762l-.071.072a5.359,5.359,0,0,0-1.516,3.906V35.6a5.524,5.524,0,0,0,1.516,3.89,5.21,5.21,0,0,0,1.55,1.17,4.732,4.732,0,0,0,2.087.463,4.655,4.655,0,0,0,3.266-1.326q.193-.18.37-.375a6.128,6.128,0,0,0,1.112-1.687,5.31,5.31,0,0,0,.439-2.135ZM45.329,36,42.5,16.637l-.4-2.559-.3,2.559L38.695,36Zm-32.7-7.847H8.419L8.352,40.345H12.63a5.766,5.766,0,0,0,4.193-1.735l.084-.084a5.943,5.943,0,0,0,1.785-4.311A5.825,5.825,0,0,0,16.961,30l-.055-.056a5.834,5.834,0,0,0-4.277-1.79Zm1.044-19.2H8.419V19.8h5.253a5.449,5.449,0,0,0,1.91-.323A4.789,4.789,0,0,0,17.545,18.1a6.413,6.413,0,0,0,1.007-1.529,5.109,5.109,0,0,0,.475-2.159,5.318,5.318,0,0,0-1.583-3.822A5.4,5.4,0,0,0,15.71,9.367a5.071,5.071,0,0,0-2.037-.408Z" fill="#05368b" stroke="#05368b" stroke-linecap="round" stroke-width="0.945" fill-rule="evenodd"/>
      </g>
      <g id="svgGroup-2" data-name="svgGroup" transform="translate(454 259)">
        <path id="Path_4" data-name="Path 4" d="M170.557,69.581h-10.01a1.3,1.3,0,0,1-.3-.031.568.568,0,0,1-.472-.479.979.979,0,0,1-.014-.174l-.1-68.115a1.125,1.125,0,0,1,.039-.309.6.6,0,0,1,.453-.439A1.151,1.151,0,0,1,160.449,0h9.033l16.9,39.4L185.889.782a.992.992,0,0,1,.048-.323A.743.743,0,0,1,186.715,0h9.965q.509,0,.576.591a1.711,1.711,0,0,1,.01.19l.1,68.213a1.027,1.027,0,0,1-.021.217.429.429,0,0,1-.467.369h-8.789L170.752,32.764l.732,36.036a.935.935,0,0,1-.054.332Q171.26,69.581,170.557,69.581Zm-158.838,0H.391Q0,69.581,0,69.093L.195.391A.335.335,0,0,1,.441.017.576.576,0,0,1,.586,0H20.8a19.484,19.484,0,0,1,9.961,2.636,20.289,20.289,0,0,1,7.251,7.081,18.656,18.656,0,0,1,2.682,8.93q.028.564.028,1.128a20.643,20.643,0,0,1-.346,3.852,16.725,16.725,0,0,1-.777,2.789,25.963,25.963,0,0,1-1.053,2.428,18.821,18.821,0,0,1-1.352,2.308q-.1.148-.208.293-.435.6-.9,1.177a12.563,12.563,0,0,1-1.806,1.85A20.383,20.383,0,0,1,39.7,48.585l.1,20.508a.419.419,0,0,1-.308.467.719.719,0,0,1-.18.021H27.979a.766.766,0,0,1-.142-.012.264.264,0,0,1-.248-.255V48.588a8.706,8.706,0,0,0-2.539-6.25A8.31,8.31,0,0,0,19.03,39.7H12.207l-.1,29.4a.9.9,0,0,1-.016.178.347.347,0,0,1-.372.3Zm93.017,0H93.262a.425.425,0,0,1-.144-.022q-.2-.071-.2-.369l.1-28.418L79.639.391A.62.62,0,0,1,79.626.33Q79.573,0,79.932,0H91.064a.523.523,0,0,1,.586.39l7.373,26.9,7.52-26.9a.455.455,0,0,1,.409-.39.7.7,0,0,1,.079,0h11.231a.567.567,0,0,1,.118.011q.256.055.175.379L105.029,40.382l.1,28.808a.335.335,0,0,1-.246.374.576.576,0,0,1-.147.017Zm-59.912-.488,12.4-68.7A.455.455,0,0,1,57.635,0a.7.7,0,0,1,.08,0h14.5a.447.447,0,0,1,.447.27A.709.709,0,0,1,72.7.39l11.914,68.7q.04.4-.25.473a.59.59,0,0,1-.14.015H73.145a.712.712,0,0,1-.211-.029.475.475,0,0,1-.327-.459l-1.074-7.325H57.91L56.836,69.09q-.049.488-.488.488H45.215q-.391,0-.391-.485Zm68.8,0,12.4-68.7a.457.457,0,0,1,.41-.393.7.7,0,0,1,.08,0h14.5a.449.449,0,0,1,.447.27.712.712,0,0,1,.041.12l11.914,68.7q.04.4-.251.473a.59.59,0,0,1-.14.015H141.943a.712.712,0,0,1-.21-.029.475.475,0,0,1-.327-.459l-1.074-7.325H126.709l-1.074,7.325q-.049.488-.489.488H114.014q-.391,0-.391-.485ZM69.531,51.075,65.43,23l-.586-3.711L64.4,23,59.912,51.075Zm68.8,0L134.229,23l-.586-3.711L133.2,23l-4.492,28.076ZM20.8,11.964H12.207V27.686H20.8a7.764,7.764,0,0,0,5.493-2.3A7.427,7.427,0,0,0,28.707,20v-.232a7.468,7.468,0,0,0-2.344-5.493A7.645,7.645,0,0,0,20.8,11.964Z" fill="#05368b" stroke="#05368b" stroke-linecap="round" stroke-width="0.945" fill-rule="evenodd"/>
      </g>
    </g>
  </g>
</svg>